<svg width="520" height="520" viewBox="0 0 520 520" fill="none" xmlns="http://www.w3.org/2000/svg">
  <defs>
    <radialGradient id="leafGlow" cx="0" cy="0" r="1" gradientUnits="userSpaceOnUse" gradientTransform="translate(260 134) rotate(90) scale(188 210)">
      <stop stop-color="#8ED35A"/>
      <stop offset="1" stop-color="#2E7D32"/>
    </radialGradient>
    <linearGradient id="trunkGrad" x1="224" y1="200" x2="312" y2="394" gradientUnits="userSpaceOnUse">
      <stop stop-color="#8B5A2B"/>
      <stop offset="1" stop-color="#5B3717"/>
    </linearGradient>
    <linearGradient id="rootGrad" x1="138" y1="370" x2="392" y2="448" gradientUnits="userSpaceOnUse">
      <stop stop-color="#7B4A24"/>
      <stop offset="1" stop-color="#3E2411"/>
    </linearGradient>
    <filter id="shadow" x="64" y="36" width="392" height="432" filterUnits="userSpaceOnUse" color-interpolation-filters="sRGB">
      <feDropShadow dx="0" dy="20" stdDeviation="20" flood-color="#123524" flood-opacity="0.18"/>
    </filter>
  </defs>
  <g filter="url(#shadow)">
    <path d="M250 88C184 76 111 128 100 206C90 276 150 328 252 326C360 324 428 280 420 204C412 132 320 76 250 88Z" fill="url(#leafGlow)"/>
    <path d="M180 170C154 174 132 192 122 220C142 208 158 210 176 228C194 246 216 244 232 230C248 216 268 214 288 226C308 238 330 238 348 224C366 210 382 210 402 220C392 188 368 170 340 168C316 166 302 176 286 188C270 200 248 200 232 190C214 178 202 166 180 170Z" fill="#4D9A42" fill-opacity="0.72"/>
    <path d="M226 208C228 256 224 302 212 344C206 366 204 390 212 414C230 390 242 370 252 344C262 372 278 394 300 414C308 388 306 364 298 340C286 302 282 256 286 210C270 204 242 204 226 208Z" fill="url(#trunkGrad)"/>
    <path d="M222 312C198 338 182 360 168 394M242 332C220 368 204 392 184 430M254 340C256 374 260 400 266 438M278 332C298 364 314 390 334 426M294 318C324 340 346 362 362 394" stroke="url(#rootGrad)" stroke-width="14" stroke-linecap="round"/>
    <g fill="#F28C28" stroke="#F7D774" stroke-width="5">
      <circle cx="162" cy="164" r="16"/><circle cx="212" cy="134" r="14"/><circle cx="260" cy="122" r="18"/><circle cx="312" cy="138" r="14"/><circle cx="358" cy="168" r="16"/>
      <circle cx="140" cy="222" r="14"/><circle cx="188" cy="208" r="13"/><circle cx="236" cy="196" r="14"/><circle cx="286" cy="198" r="13"/><circle cx="338" cy="208" r="14"/><circle cx="380" cy="224" r="13"/>
      <circle cx="178" cy="258" r="12"/><circle cx="226" cy="252" r="13"/><circle cx="276" cy="252" r="13"/><circle cx="326" cy="258" r="12"/>
    </g>
    <ellipse cx="254" cy="444" rx="138" ry="18" fill="#8ABF53" fill-opacity="0.42"/>
  </g>
</svg>
