<svg width="1200" height="800" viewBox="0 0 1200 800" fill="none" xmlns="http://www.w3.org/2000/svg" role="img" aria-label="HVAC installation team adjusting rooftop unit">
  <rect width="1200" height="800" fill="#090F1C"/>
  <rect x="0" y="540" width="1200" height="260" fill="#0F172A"/>
  <rect x="170" y="310" width="430" height="250" rx="20" fill="#1E293B"/>
  <rect x="206" y="344" width="160" height="84" rx="10" fill="#334155"/>
  <rect x="386" y="344" width="176" height="84" rx="10" fill="#334155"/>
  <rect x="206" y="444" width="356" height="82" rx="10" fill="#111827"/>
  <rect x="246" y="470" width="278" height="20" rx="10" fill="#FF7A18"/>
  <rect x="650" y="250" width="380" height="310" rx="22" fill="#111827"/>
  <rect x="698" y="306" width="286" height="32" rx="10" fill="#334155"/>
  <rect x="698" y="356" width="248" height="22" rx="8" fill="#1E293B"/>
  <rect x="698" y="392" width="230" height="22" rx="8" fill="#1E293B"/>
  <rect x="698" y="428" width="198" height="22" rx="8" fill="#1E293B"/>
  <g fill="#D1D5DB">
    <circle cx="588" cy="486" r="18"/>
    <rect x="575" y="504" width="26" height="66" rx="10"/>
    <rect x="557" y="530" width="16" height="56" rx="8" transform="rotate(17 557 530)"/>
    <rect x="603" y="530" width="16" height="56" rx="8" transform="rotate(-17 603 530)"/>
  </g>
  <rect x="640" y="495" width="56" height="14" rx="7" fill="#FF7A18"/>
  <circle cx="928" cy="165" r="95" fill="#FF7A18" fill-opacity="0.14"/>
</svg>
