<svg width="1600" height="1000" viewBox="0 0 1600 1000" fill="none" xmlns="http://www.w3.org/2000/svg">
  <rect width="1600" height="1000" fill="#060A14"/>
  <g opacity="0.14" stroke="#E2E8F0" stroke-width="1">
    <path d="M0 100H1600"/><path d="M0 200H1600"/><path d="M0 300H1600"/><path d="M0 400H1600"/><path d="M0 500H1600"/><path d="M0 600H1600"/><path d="M0 700H1600"/><path d="M0 800H1600"/><path d="M0 900H1600"/>
    <path d="M100 0V1000"/><path d="M300 0V1000"/><path d="M500 0V1000"/><path d="M700 0V1000"/><path d="M900 0V1000"/><path d="M1100 0V1000"/><path d="M1300 0V1000"/><path d="M1500 0V1000"/>
  </g>
  <path d="M180 760C320 700 440 650 560 560C680 470 790 430 900 370C1010 310 1110 230 1240 180" stroke="#22C55E" stroke-width="10" stroke-linecap="round"/>
  <path d="M180 820C320 780 430 760 560 700C700 635 820 560 920 520C1030 476 1140 420 1290 350" stroke="#F97316" stroke-width="10" stroke-linecap="round" opacity="0.92"/>
  <g fill="#F8FAFC" font-family="Inter, Arial, sans-serif" font-weight="700">
    <text x="1010" y="130" font-size="48">Velocity + Gravity + Integrity</text>
    <text x="1010" y="178" font-size="30" fill="#FDBA74">Map Pack Momentum Model</text>
  </g>
</svg>
