<svg width="1200" height="800" viewBox="0 0 1200 800" fill="none" xmlns="http://www.w3.org/2000/svg" role="img" aria-label="Plumbing contractor beside a branded service van">
  <defs>
    <linearGradient id="bg" x1="0" y1="0" x2="1" y2="1">
      <stop offset="0" stop-color="#0B1020"/>
      <stop offset="1" stop-color="#060A12"/>
    </linearGradient>
  </defs>
  <rect width="1200" height="800" fill="url(#bg)"/>
  <rect x="0" y="560" width="1200" height="240" fill="#0F172A"/>
  <rect x="180" y="380" width="620" height="170" rx="18" fill="#1E293B"/>
  <rect x="620" y="330" width="200" height="220" rx="16" fill="#334155"/>
  <rect x="218" y="420" width="210" height="78" rx="10" fill="#0F172A"/>
  <rect x="456" y="420" width="130" height="78" rx="10" fill="#0F172A"/>
  <circle cx="324" cy="566" r="54" fill="#020617"/>
  <circle cx="708" cy="566" r="54" fill="#020617"/>
  <circle cx="324" cy="566" r="24" fill="#475569"/>
  <circle cx="708" cy="566" r="24" fill="#475569"/>
  <rect x="334" y="472" width="236" height="12" rx="6" fill="#FF7A18"/>
  <g fill="#E2E8F0">
    <rect x="100" y="450" width="34" height="96" rx="11"/>
    <circle cx="116" cy="430" r="18"/>
  </g>
  <path d="M116 470L190 442" stroke="#FF7A18" stroke-width="10" stroke-linecap="round"/>
  <rect x="884" y="328" width="170" height="250" rx="14" fill="#111827"/>
  <rect x="912" y="364" width="118" height="30" rx="10" fill="#FF7A18" fill-opacity="0.85"/>
  <rect x="912" y="410" width="98" height="22" rx="8" fill="#334155"/>
  <rect x="912" y="445" width="122" height="22" rx="8" fill="#334155"/>
  <rect x="912" y="480" width="76" height="22" rx="8" fill="#334155"/>
  <circle cx="1005" cy="196" r="88" fill="#FF7A18" fill-opacity="0.16"/>
</svg>
