<svg width="1200" height="800" viewBox="0 0 1200 800" fill="none" xmlns="http://www.w3.org/2000/svg" role="img" aria-label="Roofing crew working on a residential roof at dusk">
  <defs>
    <linearGradient id="bg" x1="0" y1="0" x2="0" y2="1">
      <stop offset="0" stop-color="#0B1220"/>
      <stop offset="1" stop-color="#070B14"/>
    </linearGradient>
    <linearGradient id="accent" x1="0" y1="0" x2="1" y2="1">
      <stop offset="0" stop-color="#FF7A18" stop-opacity="0.55"/>
      <stop offset="1" stop-color="#FF7A18" stop-opacity="0"/>
    </linearGradient>
  </defs>
  <rect width="1200" height="800" fill="url(#bg)"/>
  <rect width="1200" height="800" fill="url(#accent)"/>
  <path d="M0 535L410 300L790 510L1200 330V800H0V535Z" fill="#0F172A"/>
  <path d="M280 415L600 245L900 425L862 449L600 302L322 453L280 415Z" fill="#1E293B"/>
  <rect x="514" y="300" width="108" height="212" fill="#111827"/>
  <path d="M470 530H730L778 800H422L470 530Z" fill="#111827"/>
  <g opacity="0.92">
    <rect x="420" y="378" width="30" height="125" fill="#CBD5E1"/>
    <rect x="455" y="360" width="28" height="143" fill="#94A3B8"/>
    <rect x="486" y="332" width="26" height="171" fill="#FF7A18"/>
    <rect x="515" y="349" width="25" height="154" fill="#64748B"/>
  </g>
  <g fill="#0B1220">
    <circle cx="690" cy="454" r="17"/>
    <rect x="678" y="470" width="24" height="55" rx="8"/>
    <rect x="665" y="494" width="18" height="63" rx="8" transform="rotate(20 665 494)"/>
    <rect x="701" y="494" width="18" height="67" rx="8" transform="rotate(-18 701 494)"/>
    <rect x="671" y="525" width="16" height="62" rx="8" transform="rotate(13 671 525)"/>
    <rect x="694" y="527" width="16" height="61" rx="8" transform="rotate(-9 694 527)"/>
  </g>
  <circle cx="792" cy="208" r="72" fill="#FF7A18" fill-opacity="0.22"/>
</svg>
